<?xml version="1.0" encoding="UTF-8"?>
<svg width="80px" height="80px" version="1.1" viewBox="0 0 186 186" xmlns="http://www.w3.org/2000/svg">
<title>Slice 1</title>
<desc>Created with Sketch.</desc>
<g fill="none" fill-rule="evenodd">
<g fill="#fff">
<path id="Shape" d="m0.958 185.04h184.62v-184.62h-184.62v184.62zm4.546-36.638v-5.98-136.92h136.92 8.129 30.7v29.981 8.809 50.015 3.389 83.554h-83.558-3.409-49.992-5.977-32.812v-32.849z"/>
<path id="Shape" d="m10.133 149.42 27.191 27.187c1.917 1.919 2.277 2.184 1.039 4.558-0.017 0.031-0.032 0.062-0.047 0.093h5.977l12.508-12.511c0.205-0.207 1.809-2.016 0.308-3.522-0.726-0.729-1.66-0.729-2.54-0.262-2.386 1.244-2.642 0.882-4.562-1.044l-27.187-27.184c-1.924-1.925-2.289-2.18-1.042-4.569 0.467-0.88 0.458-1.81-0.267-2.541-1.5-1.499-3.311 0.112-3.517 0.313l-12.491 12.489v5.98c0.022-0.012 0.045-0.023 0.067-0.035 2.384-1.24 2.639-0.877 4.563 1.048z"/>
<path id="Shape" d="m74.139 145.38c-2.386 1.251-2.646 0.886-4.563-1.038l-27.187-27.192c-1.918-1.917-2.284-2.175-1.038-4.559 0.467-0.878 0.461-1.81-0.267-2.541-1.505-1.495-3.312 0.107-3.519 0.314l-14.651 14.65c-0.209 0.213-1.815 2.017-0.311 3.52 0.719 0.727 1.662 0.732 2.536 0.264 2.386-1.237 2.647-0.876 4.56 1.041l11.784 11.779-4.551 4.558 3 3.007 4.561-4.559 12.402 12.404c1.918 1.919 2.284 2.179 1.035 4.561-0.459 0.881-0.458 1.812 0.264 2.544 1.502 1.497 3.315-0.105 3.526-0.312l14.655-14.647c0.206-0.209 1.804-2.021 0.304-3.527-0.73-0.724-1.658-0.728-2.54-0.267z"/>
<path id="Shape" d="m121.17 32.771c2.385-1.245 2.642-0.877 4.561 1.036l27.195 27.188c1.923 1.923 2.28 2.184 1.04 4.567-0.466 0.876-0.466 1.813 0.261 2.541 1.5 1.502 3.318-0.102 3.526-0.309l13.668-13.674-38.817-38.799-13.66 13.666c-0.207 0.204-1.816 2.023-0.312 3.522 0.721 0.727 1.656 0.727 2.538 0.262z"/>
<path id="Shape" d="m152.27 30.315 3.217 3.213c2.743-1.594 5.748-0.559 8.187 0.942 1.147 0.619 2.286 1.149 3.377 0.057 1.6-1.602-0.525-3.217-0.941-3.63l-11.201-11.204c-0.415-0.416-2.032-2.536-3.636-0.939-1.084 1.087-0.561 2.235 0.052 3.369 1.506 2.443 2.55 5.449 0.945 8.192z"/>
<path id="Shape" d="m172.02 29.251c-0.932 0.927-0.411 2.07 5e-3 3.213 2.751 5.544 2.402 11.607-1.275 16.323l3.003 3.005 7.505-7.499v-8.809l-5.975-5.968c-0.207-0.209-1.603-1.923-3.263-0.265z"/>
<path id="Shape" d="m137.95 15.996c5.282-3.827 10.468-3.935 16.014-1.067 1.035 0.515 1.813 0.774 2.696-0.11 1.558-1.545 0.619-2.589 0.358-2.847l-6.464-6.468h-8.129l-7.487 7.486 3.012 3.006z"/>
<path id="Shape" d="m82.286 153.03-7.467 7.468c-0.584 0.578-1.225 1.399-0.469 2.157 0.733 0.727 1.374 0.26 2.162-0.119 0.728-0.38 1.454 0.466 1.894 0.901l15.286 15.288c0.437 0.436 1.283 1.172 0.899 1.896-0.104 0.222-0.216 0.431-0.306 0.634h3.409l6.41-6.408-21.818-21.817z"/>
<path id="Shape" d="m161.45 73.86 1.695 1.692c2.594-0.439 4.929 1.076 6.739 2.354 0.726 0.559 1.63 1.168 2.445 0.353 0.878-0.874 0.236-1.688 0.12-1.808l-6.799-6.796-4.2 4.205z"/>
<path id="Shape" d="m147.48 87.83 4.632 4.632c1.391 0.45 2.748 1.104 4.049 1.946 0.675-0.787 0.105-1.648-0.426-2.349-1.284-1.809-2.803-4.139-2.361-6.738l-1.694-1.69-4.2 4.199z"/>
<path id="Shape" d="m178.69 93.723-18.551-18.552-7.15 7.147 18.558 18.554c1.075 1.079 1.282 1.225 0.58 2.565-0.263 0.496-0.261 1.02 0.146 1.426 0.847 0.851 1.867-0.058 1.983-0.174l6.994-6.991v-3.389c-1.332 0.698-1.482 0.494-2.56-0.586z"/>
<path id="Shape" d="m171.29 175.52-1e-3 -2.47h0.993l1.504 2.47h0.968l-1.62-2.511c0.834-0.103 1.475-0.55 1.475-1.567 0-1.125-0.664-1.621-2.011-1.621h-2.17l2e-3 5.699h0.86zm1.175-4.966c0.604 0 1.243 0.131 1.243 0.836 0 0.875-0.653 0.928-1.386 0.928h-1.032l-1e-3 -1.764h1.176z"/>
<path id="Shape" d="m172.33 177.61c2.691 0 4.993-2.09 4.993-4.954 0-2.835-2.302-4.925-4.993-4.925-2.718 0-5.017 2.09-5.017 4.925 0 2.864 2.301 4.954 5.017 4.954zm0-9.054c2.237 0 4.001 1.762 4.001 4.101 0 2.38-1.764 4.131-4.001 4.131-2.261 0-4.022-1.751-4.022-4.131-2e-3 -2.34 1.761-4.101 4.022-4.101z"/>
<path id="Shape" d="m92.78 128.3c-3.312 1.553-5.078 0.204-6.375-1.095l-26.874-26.876c-1.299-1.296-2.651-3.059-1.097-6.372l-3.008-3.009c-9.99 11.959-6.243 25.957 4.08 36.285 10.328 10.324 24.322 14.068 36.284 4.08l-3.01-3.013z"/>
<path id="Shape" d="m57.756 88.622 3.011 3.007c3.308-1.553 5.075-0.205 6.374 1.089l26.871 26.879c1.304 1.294 2.652 3.065 1.102 6.378l3.006 3.007c9.991-11.964 6.243-25.958-4.08-36.285-10.325-10.324-24.326-14.068-36.284-4.075z"/>
<path id="Shape" d="m110.59 69.182-21.459-10.382-13.145 13.144c-0.619 0.619-2.179 2.172-0.574 3.782 1.244 1.249 2.75-0.046 3.42-0.62 0.935-0.824 1.769-0.411 3.007-0.096 1.089 0.259 2.126 0.78 3.165 1.305l42.927 21.289 1.5-1.499-20.998-38.81 24.095 24.095c1.921 1.922 2.284 2.184 1.04 4.562-0.471 0.886-0.464 1.816 0.27 2.542 1.497 1.501 3.31-0.098 3.519-0.309l14.659-14.653c0.21-0.209 1.807-2.022 0.307-3.524-0.73-0.719-1.659-0.729-2.543-0.258-2.385 1.241-2.638 0.879-4.561-1.043l-27.191-27.186c-1.923-1.919-2.289-2.176-1.038-4.566 0.457-0.877 0.457-1.813-0.266-2.54-1.503-1.503-3.314 0.104-3.518 0.309l-13.673 13.667 11.165 20.692-0.108 0.099z"/>
<path id="Shape" d="m115.51 110.02 5.903-5.895c0.567-0.571 2.79-2.583 1.18-4.191-2.229-2.232-3.515 3.1-10.828-2.561l-8.923-8.922-11.457-5.663-0.104 0.106 17.48 17.485c5.657 7.313 0.325 8.605 2.559 10.838 1.606 1.603 3.621-0.623 4.19-1.197z"/>
<path id="Shape" d="m103.96 153.17c-7.879-7.182-15.462-6.482-20.361-1.463l1.694 1.692c2.01-1.545 3.76 0.028 4.87 1.135l12.423 12.43c1.112 1.104 2.689 2.855 1.142 4.871l1.691 1.692c4.843-4.843 5.715-13.828-1.459-20.357z"/>
<path id="Shape" d="m94.474 140.83c-0.115 0.115-1.021 1.142-0.177 1.985 0.409 0.409 0.935 0.41 1.433 0.142 1.338-0.696 1.487-0.49 2.567 0.586l15.285 15.285c1.077 1.082 1.282 1.229 0.579 2.568-0.262 0.495-0.259 1.021 0.146 1.429 0.847 0.845 1.869-0.061 1.986-0.175l7.699-7.699-21.82-21.82-7.698 7.699z"/>
<path id="Shape" d="m124.34 140.95c-0.525 0.524-0.228 1.165 3e-3 1.805 1.547 3.126 1.34 6.541-0.729 9.194l1.694 1.692 6.709-6.709-5.837-5.836c-0.117-0.118-0.904-1.079-1.84-0.146z"/>
<path id="Shape" d="m115.04 143.37c1.549-0.905 3.237-0.319 4.606 0.521 0.644 0.354 1.287 0.646 1.895 0.032 0.908-0.906-0.288-1.812-0.519-2.04l-6.302-6.304c-0.234-0.234-1.14-1.431-2.045-0.529-0.615 0.613-0.323 1.26 0.03 1.902 0.847 1.372 1.429 3.062 0.523 4.604l1.812 1.814z"/>
<path id="Shape" d="m109.99 125.32-6.503 6.502 1.69 1.69c2.979-2.154 5.892-2.213 9.017-0.609 0.586 0.293 1.018 0.438 1.516-0.058 0.877-0.878 0.348-1.46 0.203-1.608l-5.923-5.917z"/>
<path id="Shape" d="m141.06 134.51c-1.342 0.704-1.489 0.494-2.563-0.58l-18.557-18.556-7.7 7.698c-0.115 0.116-1.02 1.14-0.176 1.982 0.408 0.41 0.933 0.416 1.428 0.149 1.344-0.696 1.489-0.493 2.568 0.587l15.286 15.279c1.078 1.082 1.445 1.069 0.744 2.408-0.263 0.497-0.191 0.954 0.217 1.365 0.846 0.843 1.64 0.171 1.754 0.049l8.256-8.256c0.118-0.115 1.023-1.138 0.175-1.983-0.409-0.406-0.934-0.403-1.432-0.142z"/>
<path id="Shape" d="m128.11 109.36c-2.162 0.578-4.087 1.923-6.859 4.697l1.692 1.691c1.78-1.315 3.242-0.379 4.556 0.93l4.405 4.404c1.429 1.433 2.533 2.715 1.134 4.764l1.691 1.688c2.774-2.77 4.114-4.696 4.7-6.857 0.478-1.88 0.354-3.556-0.237-5.094-1.031-1.185-1.904-2.441-2.603-3.744-2.406-2.318-5.12-3.335-8.479-2.479z"/>
<path id="Shape" d="m155.46 116.78-15.114-15.11c-0.729-0.728-1.484-1.717-0.607-3.583l-1.696-1.696c-4.145 4.963-4.089 10.54-1.457 15.454 0.062 0.06 0.126 0.109 0.188 0.171 1.111 1.111 1.922 2.295 2.415 3.573 0.361 0.416 0.738 0.825 1.136 1.223 5.802 5.809 13.68 7.906 20.417 2.272l-1.693-1.691c-1.868 0.877-2.859 0.118-3.589-0.613z"/>
<path id="Shape" d="m154.28 94.625-2.162-2.163c-4.194-1.356-8.68-0.792-12.753 2.613l1.69 1.688c1.867-0.872 2.856-0.116 3.588 0.617l15.109 15.108c0.731 0.732 1.488 1.722 0.613 3.588l1.695 1.693c5.633-6.743 3.526-14.614-2.279-20.419-1.134-1.134-2.348-2.121-3.615-2.943-0.028 0.033-0.045 0.067-0.078 0.1-0.872 0.877-1.687 0.239-1.808 0.118z"/>
<path id="Shape" d="m154.28 94.625c0.12 0.121 0.936 0.759 1.809-0.117 0.033-0.032 0.05-0.066 0.078-0.1-1.301-0.842-2.658-1.496-4.049-1.946l2.162 2.163z"/>
<path id="Shape" d="m136.59 111.84c0.698 1.303 1.571 2.56 2.603 3.744-0.493-1.278-1.304-2.462-2.415-3.573-0.062-0.062-0.126-0.112-0.188-0.171z"/>
<path id="Shape" d="m44.551 91.901c-0.248 0.466-0.248 0.961 0.137 1.343 0.795 0.797 1.754-0.055 1.864-0.162l7.759-7.761c0.109-0.11 0.959-1.07 0.164-1.864-0.384-0.384-0.877-0.384-1.343-0.137-1.261 0.658-1.398 0.466-2.413-0.549l-17.438-17.437-6.717 6.717 17.438 17.439c1.015 1.013 1.206 1.15 0.549 2.411z"/>
<path id="Shape" d="m42.439 67.911c0.685 0.521 1.535 1.097 2.303 0.329 0.822-0.824 0.219-1.59 0.11-1.7l-6.388-6.387-3.949 3.946 1.59 1.59c2.441-0.411 4.634 1.015 6.334 2.222z"/>
<path id="Shape" d="m29.471 83.511c0.767-0.767 0.191-1.617-0.33-2.302-1.207-1.701-2.632-3.895-2.221-6.335l-1.589-1.59-3.949 3.949 6.389 6.387c0.109 0.111 0.876 0.715 1.7-0.109z"/>
<path id="Shape" d="m51.844 49.952c1.261-0.658 1.398-0.466 2.413 0.548l6.224 6.224-2.413 2.413 1.59 1.591 2.413-2.413 6.553 6.553c1.014 1.014 1.206 1.152 0.548 2.413-0.246 0.466-0.246 0.96 0.137 1.343 0.796 0.795 1.756-0.054 1.865-0.164l7.759-7.76c0.109-0.109 0.959-1.069 0.164-1.864-0.384-0.384-0.877-0.384-1.343-0.137-1.261 0.657-1.398 0.466-2.413-0.548l-14.367-14.368c-1.014-1.014-1.207-1.152-0.548-2.413 0.246-0.466 0.246-0.959-0.137-1.343-0.795-0.795-1.755 0.055-1.865 0.165l-7.759 7.758c-0.11 0.11-0.96 1.07-0.165 1.865 0.385 0.384 0.878 0.384 1.344 0.137z"/>
<path id="Shape" d="m41.479 60.316c1.261-0.658 1.399-0.466 2.413 0.549l14.367 14.367c1.014 1.015 1.206 1.152 0.548 2.412-0.248 0.467-0.246 0.96 0.136 1.345 0.795 0.795 1.755-0.055 1.865-0.165l7.759-7.759c0.109-0.109 0.959-1.07 0.164-1.865-0.383-0.382-0.877-0.382-1.343-0.137-1.261 0.658-1.398 0.466-2.413-0.547l-14.366-14.369c-1.016-1.014-1.207-1.152-0.55-2.412 0.248-0.466 0.248-0.96-0.137-1.344-0.794-0.796-1.754 0.055-1.864 0.164l-7.76 7.76c-0.109 0.109-0.959 1.069-0.164 1.864 0.386 0.384 0.878 0.384 1.345 0.137z"/>
<path id="Shape" d="m78.117 32.178c-0.575 0.576-0.301 1.179 0.028 1.782 0.794 1.289 1.343 2.879 0.494 4.331l1.7 1.701c1.453-0.85 3.042-0.301 4.332 0.493 0.604 0.33 1.207 0.604 1.784 0.028 0.849-0.849-0.275-1.7-0.495-1.919l-5.923-5.922c-0.22-0.22-1.07-1.344-1.92-0.494z"/>
<path id="Shape" d="m89.99 49.644 6.305-6.307-5.484-5.483c-0.109-0.11-0.85-1.014-1.726-0.137-0.495 0.493-0.22 1.097 0 1.7 1.453 2.934 1.261 6.142-0.686 8.637l1.591 1.59z"/>
<path id="a" d="m62.187 39.608c1.261-0.659 1.399-0.465 2.414 0.548l14.367 14.367c1.014 1.015 1.207 1.151 0.548 2.414-0.247 0.465-0.247 0.959 0.137 1.343 0.796 0.794 1.755-0.055 1.865-0.165l7.238-7.238-20.509-20.508-7.239 7.238c-0.11 0.11-0.959 1.069-0.164 1.866 0.384 0.382 0.877 0.382 1.343 0.135z"/>
<path d="m79.544 30.149c0.547 0.274 0.958 0.411 1.425-0.055 0.822-0.823 0.329-1.371 0.192-1.507l-5.566-5.565-6.114 6.113 1.59 1.589c2.796-2.029 5.538-2.082 8.473-0.575z"/>
</g>
</g>
</svg>
